<svg width="12" height="12" viewBox="0 0 12 12" fill="none" xmlns="http://www.w3.org/2000/svg">
<path d="M2 6.75V2C2 1.73478 2.10536 1.48043 2.29289 1.29289C2.48043 1.10536 2.73478 1 3 1H7.25L10 3.75V10C10 10.2652 9.89464 10.5196 9.70711 10.7071C9.51957 10.8946 9.26522 11 9 11H6.25" stroke="white" stroke-linecap="round" stroke-linejoin="round"/>
<path d="M7 1V4H10" stroke="white" stroke-linecap="round" stroke-linejoin="round"/>
<path d="M5.21 6.30511C5.30751 6.20761 5.42326 6.13026 5.55066 6.07749C5.67806 6.02472 5.8146 5.99756 5.9525 5.99756C6.09039 5.99756 6.22694 6.02472 6.35434 6.07749C6.48174 6.13026 6.59749 6.20761 6.695 6.30511C6.79251 6.40262 6.86985 6.51838 6.92262 6.64577C6.97539 6.77317 7.00255 6.90972 7.00255 7.04761C7.00255 7.18551 6.97539 7.32205 6.92262 7.44945C6.86985 7.57685 6.79251 7.69261 6.695 7.79011L3.975 10.5001L2 11.0001L2.495 9.02511L5.21 6.30511Z" stroke="white" stroke-linecap="round" stroke-linejoin="round"/>
</svg>
