<svg width="15" height="14" viewBox="0 0 15 14" fill="none" xmlns="http://www.w3.org/2000/svg">
<path d="M13.4291 0H2.44426C1.58117 0 0.875 0.7 0.875 1.55556V12.4444C0.875 13.3 1.58117 14 2.44426 14H13.4291C14.2922 14 14.9983 13.3 14.9983 12.4444V1.55556C14.9983 0.7 14.2922 0 13.4291 0ZM5.9751 6.61111C5.9751 7.23333 5.42586 7.77778 4.79815 7.77778H4.01352V9.33333H2.83658V4.66667H4.79815C5.42586 4.66667 5.9751 5.21111 5.9751 5.83333V6.61111ZM9.89825 8.16667C9.89825 8.78889 9.34901 9.33333 8.7213 9.33333H6.75973V4.66667H8.7213C9.34901 4.66667 9.89825 5.21111 9.89825 5.83333V8.16667ZM13.0368 5.83333H11.8598V6.61111H13.0368V7.77778H11.8598V9.33333H10.6829V4.66667H13.0368V5.83333ZM7.93667 5.83333H8.7213V8.16667H7.93667V5.83333ZM4.01352 5.83333H4.79815V6.61111H4.01352V5.83333Z" fill="#0F172A"/>
</svg>
