<svg width="16" height="14" viewBox="0 0 16 14" fill="none" xmlns="http://www.w3.org/2000/svg">
<path d="M10.3333 13V11.6667C10.3333 10.9594 10.0524 10.2811 9.55228 9.78105C9.05219 9.28095 8.37391 9 7.66667 9H3.66667C2.95942 9 2.28115 9.28095 1.78105 9.78105C1.28095 10.2811 1 10.9594 1 11.6667V13M14.3333 13V11.6667C14.3329 11.0758 14.1362 10.5018 13.7742 10.0349C13.4122 9.56791 12.9054 9.23438 12.3333 9.08667M10.3333 1.08667C10.9069 1.23353 11.4154 1.56713 11.7784 2.03487C12.1415 2.50261 12.3386 3.07789 12.3386 3.67C12.3386 4.26211 12.1415 4.83739 11.7784 5.30513C11.4154 5.77287 10.9069 6.10647 10.3333 6.25333M8.33333 3.66667C8.33333 5.13943 7.13943 6.33333 5.66667 6.33333C4.19391 6.33333 3 5.13943 3 3.66667C3 2.19391 4.19391 1 5.66667 1C7.13943 1 8.33333 2.19391 8.33333 3.66667Z" stroke="black" stroke-width="1.5" stroke-linecap="round" stroke-linejoin="round"/>
</svg>
