<svg width="15" height="14" viewBox="0 0 15 14" fill="none" xmlns="http://www.w3.org/2000/svg">
<path d="M7.66797 13C10.9817 13 13.668 10.3137 13.668 7C13.668 3.68629 10.9817 1 7.66797 1C4.35426 1 1.66797 3.68629 1.66797 7C1.66797 10.3137 4.35426 13 7.66797 13Z" stroke="black" stroke-width="1.5" stroke-linecap="round" stroke-linejoin="round"/>
<path d="M7.66797 10.6C9.65619 10.6 11.268 8.98823 11.268 7C11.268 5.01177 9.65619 3.4 7.66797 3.4C5.67974 3.4 4.06797 5.01177 4.06797 7C4.06797 8.98823 5.67974 10.6 7.66797 10.6Z" stroke="black" stroke-width="1.5" stroke-linecap="round" stroke-linejoin="round"/>
<path d="M7.66797 8.2C8.33071 8.2 8.86797 7.66274 8.86797 7C8.86797 6.33726 8.33071 5.8 7.66797 5.8C7.00523 5.8 6.46797 6.33726 6.46797 7C6.46797 7.66274 7.00523 8.2 7.66797 8.2Z" stroke="black" stroke-width="1.5" stroke-linecap="round" stroke-linejoin="round"/>
</svg>
